<svg id="Capa_1" enable-background="new 0 0 512 512" height="512" viewBox="0 0 512 512" width="512" xmlns="http://www.w3.org/2000/svg"><g><g><path d="m330.125 291.995h-148.932c-3.03 0-5.988-.917-8.486-2.632-8.884-6.096-16.326-12.562-22.751-19.769-14.423-16.178-23.602-35.027-27.281-56.024-3.682-21.013-.916-39.082 2.052-50.539 5.892-22.742 20.182-44.685 41.327-63.454 41.688-37.002 56.766-88.188 56.913-88.7 1.127-3.922 3.808-7.229 7.417-9.134 3.609-1.905 7.842-2.269 11.716-.99 1.33.44 32.749 11.151 48.673 44.542 10.815 22.678 11.881 49.688 3.21 80.478 2.866-.159 5.936-.765 8.951-2.131 7.64-3.463 12.334-10.61 11.957-18.208-.29-5.828 2.826-11.294 7.987-14.015 5.161-2.72 11.431-2.201 16.076 1.331 14.963 11.383 41.3 36.129 49.562 73.97 10.051 46.031-9.475 94.128-49.745 122.533-2.529 1.784-5.549 2.742-8.646 2.742z" fill="#ffb454"/><path d="m338.954 92.75c-4.645-3.532-10.915-4.051-16.076-1.331-5.162 2.721-8.277 8.187-7.987 14.015.377 7.598-4.316 14.745-11.957 18.208-3.015 1.366-6.084 1.972-8.951 2.131 8.671-30.79 7.605-57.8-3.21-80.478-9.33-19.564-23.973-31.333-34.773-37.822v284.522h74.125c3.096 0 6.116-.958 8.646-2.742 40.27-28.405 59.795-76.502 49.745-122.533-8.262-37.841-34.599-62.588-49.562-73.97z" fill="#ff7038"/><path d="m290.151 291.995h-68.303c-5.335 0-10.269-2.834-12.958-7.443-12.156-20.843-10.702-46.628 3.705-65.691l31.437-41.601c2.835-3.752 7.265-5.957 11.967-5.957s9.132 2.205 11.967 5.957l31.437 41.602c14.406 19.062 15.86 44.848 3.705 65.69-2.688 4.609-7.621 7.443-12.957 7.443z" fill="#ffe278"/><path d="m290.151 291.995c5.335 0 10.269-2.834 12.958-7.443 12.156-20.843 10.702-46.628-3.705-65.69l-31.437-41.602c-2.835-3.752-7.265-5.957-11.967-5.957v120.692z" fill="#ffb454"/></g><g><path d="m446 512h-380c-24.813 0-45-20.187-45-45v-160c0-24.813 20.187-45 45-45h380c24.813 0 45 20.187 45 45v160c0 24.813-20.187 45-45 45z" fill="#f4f4f6"/><path d="m446 262h-190v250h190c24.813 0 45-20.187 45-45v-160c0-24.813-20.187-45-45-45z" fill="#e2dff4"/><path d="m66 292c-8.271 0-15 6.729-15 15v160c0 8.271 6.729 15 15 15h380c8.271 0 15-6.729 15-15v-160c0-8.271-6.729-15-15-15z" fill="#ff7038"/><path d="m446 292h-190v190h190c8.271 0 15-6.729 15-15v-160c0-8.271-6.729-15-15-15z" fill="#ff1f3d"/><path d="m141.886 421.916c-.028 0-.058 0-.086 0-6.785.038-13.934.066-19.933.078v-84.994c0-8.284-6.716-15-15-15s-15 6.716-15 15v99.916c0 7.307 5.265 13.55 12.466 14.784 1.08.186 1.794.309 12.96.309 5.387 0 13.209-.029 24.674-.093 8.284-.047 14.962-6.8 14.916-15.084-.046-8.256-6.752-14.916-14.997-14.916z" fill="#f4f4f6"/><path d="m191.888 322c-8.284 0-15 6.716-15 15v100c0 8.284 6.716 15 15 15s15-6.716 15-15v-100c0-8.284-6.716-15-15-15z" fill="#f4f4f6"/><path d="m405.133 422h-27.136v-20h24.029c8.284 0 15-6.716 15-15s-6.716-15-15-15h-24.029v-20h27.136c8.284 0 15-6.716 15-15s-6.716-15-15-15h-42.136c-8.284 0-15 6.716-15 15v100c0 8.284 6.716 15 15 15h42.136c8.284 0 15-6.716 15-15s-6.716-15-15-15z" fill="#e2dff4"/><path d="m317.725 322.948c-7.858-2.612-16.352 1.644-18.964 9.507l-20.818 62.665-21.882-63.039c-2.716-7.825-11.262-11.965-19.089-9.252-7.826 2.717-11.968 11.264-9.251 19.09l34.19 98.498c.012.034.023.067.036.102 2.444 6.88 8.969 11.481 16.261 11.481.04 0 .079 0 .118-.001 7.34-.05 13.859-4.753 16.221-11.702.011-.032.022-.065.033-.099l32.651-98.286c2.611-7.861-1.645-16.351-9.506-18.964z" fill="#f4f4f6"/><path d="m317.725 322.948c-7.858-2.612-16.352 1.644-18.964 9.507l-20.818 62.665-21.882-63.039c-.018-.052-.043-.099-.061-.151v91.46l5.91 17.027c.012.034.023.067.036.102 2.444 6.88 8.969 11.481 16.261 11.481.04 0 .079 0 .118-.001 7.34-.05 13.859-4.753 16.221-11.702.011-.032.022-.065.033-.099l32.651-98.286c2.612-7.861-1.644-16.351-9.505-18.964z" fill="#e2dff4"/></g></g></svg>